# xmcd
#
# Track frame offsets:
#	150
#	21317
#	34586
#	44898
#	64089
#	77016
#	93617
#	116195
#	135807
#	152486
#	166083
#	182889
#	199921
#	221359
#	244076
#	261527
#	277145
#	294665
#
# Disc length: 4167 seconds
#
# Revision: 1
# Processed by: cddbd v1.5.2PL0 Copyright (c) Steve Scherf et al.
# Submitted via: audiograbber 1.83.01
#
DISCID=0f104512
DTITLE=Vidar Busk and His True Believers  - Stompin' our feet with joy
DYEAR=2011
DGENRE=
TTITLE0=Stompin' our feet with joy
TTITLE1=Boogie Leg
TTITLE2=Working Man Blues
TTITLE3=5-10-15 Hours
TTITLE4=Lucy Mae Blues
TTITLE5=Anywhere you go
TTITLE6=The ballad of Vidar Busk
TTITLE7=Live my life too fast
TTITLE8=Low down shakin' chill
TTITLE9=Shrimps at South Peak
TTITLE10=Lawdy Miss Clawdy
TTITLE11=Use what you got
TTITLE12=Make me feel so bad
TTITLE13=She wants to sell my monkey
TTITLE14=Jelly Roll (bonus)
TTITLE15=Dreamin' about the wolf (bonus)
TTITLE16=In the alley (bonus)
TTITLE17=The second coming (bonus)
EXTD=
EXTT0=
EXTT1=
EXTT2=
EXTT3=
EXTT4=
EXTT5=
EXTT6=
EXTT7=
EXTT8=
EXTT9=
EXTT10=
EXTT11=
EXTT12=
EXTT13=
EXTT14=
EXTT15=
EXTT16=
EXTT17=
PLAYORDER=
